<?xml version="1.0" encoding="utf-8"?>
<!-- Generated by IcoMoon.io -->
<!DOCTYPE svg PUBLIC "-//W3C//DTD SVG 1.1//EN" "http://www.w3.org/Graphics/SVG/1.1/DTD/svg11.dtd">
<svg version="1.1" xmlns="http://www.w3.org/2000/svg" xmlns:xlink="http://www.w3.org/1999/xlink" width="32" height="32" viewBox="0 0 32 32">
<path fill="#000000" d="M14.67 0.044c-2.468 0.185-5.079 1.068-7.283 2.456-1.765 1.117-3.771 3.123-4.888 4.888-1.395 2.216-2.265 4.801-2.456 7.308-0.117 1.537 0.019 3.419 0.339 4.857 0.142 0.636 0.617 2.141 0.815 2.586 0.981 2.197 2.024 3.746 3.5 5.215 2.431 2.407 5.314 3.882 8.764 4.487 0.975 0.166 3.475 0.21 4.511 0.074 3.586-0.463 6.715-1.975 9.276-4.493 2.586-2.536 4.196-5.795 4.666-9.449 0.136-1.037 0.093-3.537-0.074-4.511-0.605-3.45-2.080-6.332-4.487-8.764-1.469-1.475-3.018-2.518-5.215-3.5-0.444-0.198-1.95-0.673-2.586-0.815-1.432-0.321-3.339-0.451-4.882-0.339zM18.126 1.364c1.586 0.247 2.9 0.654 4.351 1.358 4.838 2.339 8.035 7.147 8.289 12.461 0.185 3.727-0.852 7.036-3.129 9.98-0.506 0.654-1.728 1.894-2.382 2.407-2.031 1.599-4.369 2.636-6.9 3.055-1.284 0.21-3.327 0.21-4.672 0-4.746-0.747-8.863-3.808-10.961-8.147-0.703-1.45-1.111-2.765-1.358-4.351-0.161-1.012-0.166-3.098-0.019-4.104 0.476-3.203 1.827-5.987 4.005-8.264 0.901-0.944 1.777-1.635 3.24-2.549 0.444-0.278 1.623-0.833 2.345-1.098 0.808-0.296 2.086-0.617 3.086-0.765 1.006-0.148 3.092-0.142 4.104 0.019zM15.658 6.69c-0.117 0.061-0.278 0.204-0.352 0.321l-0.142 0.21v4.943c0 4.789 0.006 4.95 0.124 5.141 0.266 0.432 0.148 0.42 3.24 0.42 3.018 0 3.061-0.006 3.302-0.339 0.266-0.371 0.216-0.821-0.13-1.148l-0.185-0.179-4.623-0.037v-0.259c-0.006-0.142-0.012-2.123-0.019-4.394-0.012-3.888-0.019-4.147-0.124-4.32-0.253-0.413-0.703-0.562-1.092-0.358z"></path>
</svg>
