<svg xmlns="http://www.w3.org/2000/svg" xmlns:xlink="http://www.w3.org/1999/xlink" xmlns:sketch="http://www.bohemiancoding.com/sketch/ns" preserveAspectRatio="" viewBox="0 0 31 32" id="instagram" width="100%" height="100%"><path fill="currentColor" d="M31.361 3.268A3.623 3.623 0 0 0 27.739 0C19.708 0 11.678 0 3.646.002c-.22 0-.443.016-.656.058C1.211.4.003 1.871.003 3.682v12.011c0 3.996 0 7.991.002 11.986 0 .203.015.408.041.611.233 1.737 1.776 3.085 3.532 3.086l24.226-.001c.139 0 .275-.008.414-.023 1.774-.208 3.154-1.758 3.154-3.544.003-8.077.003-16.153.001-24.229.002-.105.004-.208-.01-.311zM15.688 9.656a6.029 6.029 0 0 1 6.035 6.03 6.022 6.022 0 0 1-6.025 6.035 6.03 6.03 0 0 1-6.04-6.04 6.034 6.034 0 0 1 6.03-6.025zm12.074 3.785v13.001c0 .816-.496 1.316-1.313 1.316H4.894c-.756-.001-1.269-.515-1.269-1.27V13.286h2.723c-.609 2.458-.33 4.81.873 7.034.88 1.623 2.14 2.885 3.748 3.793a9.635 9.635 0 0 0 10.15-.443 9.507 9.507 0 0 0 3.604-4.575c.715-1.897.809-3.834.309-5.813h2.728l.002.158zm0-5.02c-.002.713-.527 1.234-1.244 1.235h-1.775c-.595 0-1.192.001-1.79-.001-.687 0-1.222-.513-1.225-1.2a273.917 273.917 0 0 1 0-3.626c.004-.695.536-1.204 1.235-1.205h3.565a1.204 1.204 0 0 1 1.234 1.233c.001 1.19.001 2.377-.001 3.565z"></path></svg>
