<svg width="48px" height="50px" viewBox="0 0 48 50" version="1.1" xmlns="http://www.w3.org/2000/svg" xmlns:xlink="http://www.w3.org/1999/xlink" xmlns:sketch="http://www.bohemiancoding.com/sketch/ns">
    <g id="search"  fill="currentColor">
        <path d="M47.1699313,47.9043172 L32.3119341,31.6946127 C35.6594517,28.1944542 37.4997888,23.6142318 37.4997888,18.7498944 C37.4997888,13.7425058 35.5500391,9.03269756 32.0075963,5.49219255 C28.4651534,1.95168755 23.757283,0 18.7498944,0 C13.7425058,0 9.03269756,1.94974972 5.49219255,5.49219255 C1.95168755,9.03463539 0,13.7425058 0,18.7498944 C0,23.757283 1.94974972,28.4670913 5.49219255,32.0075963 C9.03463539,35.5481013 13.7425058,37.4997888 18.7498944,37.4997888 C23.0651318,37.4997888 27.1547368,36.0520848 30.4696591,33.3871287 L45.3276563,49.5948953 C45.5753501,49.8646504 45.910395,50 46.2502099,50 C46.55261,50 46.85501,49.8924756 47.0950021,49.6726567 C47.6047494,49.2022622 47.6373943,48.4150582 47.1727635,47.9071991 L47.1698816,47.9043172 L47.1699313,47.9043172 Z M2.49701128,18.7489503 C2.49701128,9.78919449 9.78730635,2.4989491 18.7470125,2.4989491 C27.7067187,2.4989491 34.9970138,9.78924418 34.9970138,18.7489503 C34.9970138,27.7087062 27.7067187,34.9989516 18.7470125,34.9989516 C9.78730635,34.9989516 2.49701128,27.7086565 2.49701128,18.7489503 L2.49701128,18.7489503 Z"></path>
    </g>
</svg>
