<svg preserveAspectRatio="" viewBox="0 0 29 32" id="youtube" width="100%" height="100%"><path fill="currentColor" d="M28.931 18.312v9.367a3.49 3.49 0 0 1-.372 1.609 4.17 4.17 0 0 1-1.015 1.295 4.89 4.89 0 0 1-1.481.874c-.564.212-1.17.32-1.823.32H5.094a5.064 5.064 0 0 1-1.801-.32 4.851 4.851 0 0 1-1.483-.874 4.302 4.302 0 0 1-1.017-1.295 3.514 3.514 0 0 1-.371-1.609v-9.367c0-.556.123-1.086.372-1.589a4.058 4.058 0 0 1 1.017-1.302c.426-.362.921-.656 1.483-.876s1.163-.33 1.801-.33h19.146c.638 0 1.241.111 1.811.33a5.17 5.17 0 0 1 1.494.876c.429.362.766.798 1.015 1.302s.371 1.034.371 1.589zM6.376 28.724v-9.88h2.348V17.35h-6.34v1.451h2.032v9.922h1.96zm.957-22.985L4.708 0h2.285l1.306 4.29L9.601 0h2.281L9.424 5.739v6.683H7.333V5.739zm6.17 14.555h-1.961v5.274c0 .382.004.678.019.882.013.209-.015.34-.086.396-.059.227-.224.394-.505.502-.271.104-.482-.044-.628-.46-.03-.055-.034-.195-.019-.414.013-.222.019-.51.019-.867l-.04-5.313H8.339l.045 5.231c0 .411-.01.754-.024 1.032s-.01.486.024.63l.083.737c.027.261.162.473.407.63.227.141.493.215.796.215.31 0 .609-.052.899-.153.294-.101.561-.237.81-.413.247-.177.431-.369.542-.567l-.039 1.044 1.621.042v-8.428zM11.709 6.616c0-.783.076-1.432.214-1.939.175-.529.45-.906.835-1.135.386-.284.876-.428 1.473-.428.525 0 .963.087 1.323.256.354.143.646.39.874.748.172.26.301.547.386.877.081.356.126.831.126 1.431v2.237c0 .813-.045 1.396-.126 1.754-.034.325-.172.688-.431 1.087-.254.354-.53.589-.829.703-.36.172-.761.254-1.219.254-.465 0-.897-.071-1.278-.214-.358-.113-.623-.32-.79-.616-.17-.232-.315-.549-.431-.963-.083-.387-.128-.965-.128-1.749V6.614zm1.751 3.478c0 .227.086.431.258.609a.854.854 0 0 0 1.225.008.815.815 0 0 0 .264-.618V5.462a.876.876 0 0 0-.264-.648.84.84 0 0 0-.608-.269.831.831 0 0 0-.606.269.879.879 0 0 0-.269.648v4.631zm6.38 16.219v-4.375c0-.838-.296-1.438-.892-1.791a1.371 1.371 0 0 0-.685-.172c-.471 0-1.01.221-1.621.662v-3.286h-1.963v11.29l1.623-.042.126-.703c.527.443 1.004.712 1.419.812.422.098.774.059 1.067-.119.293-.175.52-.467.682-.876.162-.404.244-.874.244-1.398zm-2.365-5.249c.227 0 .426.067.606.204.177.134.266.288.266.456v4.953c0 .17-.089.317-.266.446a1.02 1.02 0 0 1-.606.194c-.23 0-.431-.066-.613-.194-.175-.128-.261-.276-.261-.446v-4.953c0-.17.087-.322.261-.456a.99.99 0 0 1 .613-.204zm.914-9.517a1.223 1.223 0 0 1-.104-.354 2.702 2.702 0 0 0-.067-.352 3.265 3.265 0 0 1-.04-.579V3.459h1.835v6.785c0 .173.062.318.19.45.133.126.3.192.514.192.2 0 .371-.066.512-.192a.585.585 0 0 0 .219-.45V3.459h1.702v8.707h-2.172l.039-.703c-.2.283-.389.505-.576.66a1.39 1.39 0 0 1-.748.214c-.325 0-.598-.072-.812-.214-.187-.126-.35-.32-.492-.576zm7.64 14.214h-1.47v.958a.637.637 0 0 1-.246.532.905.905 0 0 1-.584.19h-.305a.829.829 0 0 1-.562-.19.663.663 0 0 1-.227-.532V24.69h3.394v-1.174c0-.439-.007-.863-.022-1.268-.013-.407-.047-.724-.104-.948a1.397 1.397 0 0 0-.525-.931 2.402 2.402 0 0 0-1.022-.478 3.248 3.248 0 0 0-1.197-.044c-.404.057-.752.19-1.057.404a2.195 2.195 0 0 0-.83 1.049c-.172.438-.256 1.051-.256 1.835v2.626c0 1.106.294 1.899.877 2.367.539.439 1.106.662 1.704.662h.175c.67-.04 1.259-.326 1.773-.854.384-.384.576-.891.576-1.513-.022-.202-.045-.424-.091-.663zm-1.515-2.502h-1.877l.042-1.042c0-.229.086-.414.256-.567a.906.906 0 0 1 .621-.226h.086c.253 0 .47.072.65.214a.712.712 0 0 1 .268.579l-.045 1.042z"></path></svg>
